<svg xmlns="http://www.w3.org/2000/svg" viewBox="0 0 64 64">
  <defs>
    <linearGradient id="g" x1="0" y1="0" x2="1" y2="1">
      <stop offset="0%" stop-color="#0ea5e9"/>
      <stop offset="100%" stop-color="#22c55e"/>
    </linearGradient>
  </defs>
  <rect width="64" height="64" rx="12" fill="url(#g)"/>
  <g fill="#fff">
    <path d="M20 22h24a2 2 0 0 1 2 2v3a2 2 0 0 1-2 2H20a2 2 0 0 1-2-2v-3a2 2 0 0 1 2-2z"/>
    <path d="M20 33h18a2 2 0 0 1 2 2v3a2 2 0 0 1-2 2H20a2 2 0 0 1-2-2v-3a2 2 0 0 1 2-2z"/>
  </g>
</svg>